<?xml version="1.0" encoding="UTF-8" standalone="no"?>
<!DOCTYPE svg PUBLIC "-//W3C//DTD SVG 1.1//EN"
 "http://www.w3.org/Graphics/SVG/1.1/DTD/svg11.dtd">
<!-- Generated by graphviz version 14.1.3 (20260303.0454)
 -->
<!-- Title: G Pages: 1 -->
<svg width="1199pt" height="764pt"
 viewBox="0.00 0.00 1199.00 764.00" xmlns="http://www.w3.org/2000/svg" xmlns:xlink="http://www.w3.org/1999/xlink">
<g id="graph0" class="graph" transform="scale(1 1) rotate(0) translate(4 760)">
<title>G</title>
<polygon fill="white" stroke="none" points="-4,4 -4,-760 1194.88,-760 1194.88,4 -4,4"/>
<!-- given -->
<g id="node1" class="node">
<title>given</title>
<ellipse fill="#cccccc" stroke="black" cx="696.62" cy="-738" rx="38.06" ry="18"/>
<text xml:space="preserve" text-anchor="middle" x="696.62" y="-733.33" font-family="Arial" font-size="14.00">given</text>
</g>
<!-- sequences::read_pair -->
<g id="node2" class="node">
<title>sequences::read_pair</title>
<polygon fill="none" stroke="black" points="844.5,-612 680.75,-612 680.75,-576 844.5,-576 844.5,-612"/>
<text xml:space="preserve" text-anchor="middle" x="762.62" y="-589.33" font-family="Arial" font-size="14.00">sequences::read_pair</text>
</g>
<!-- given&#45;&gt;sequences::read_pair -->
<g id="edge4" class="edge">
<title>given&#45;&gt;sequences::read_pair</title>
<path fill="none" stroke="black" d="M704.46,-720.15C715.66,-696.05 736.39,-651.45 749.84,-622.51"/>
<polygon fill="black" stroke="black" points="752.92,-624.18 753.96,-613.64 746.57,-621.23 752.92,-624.18"/>
</g>
<!-- sequences::zipped_forward_short_reads -->
<g id="node3" class="node">
<title>sequences::zipped_forward_short_reads</title>
<polygon fill="none" stroke="black" points="734.38,-540 440.88,-540 440.88,-504 734.38,-504 734.38,-540"/>
<text xml:space="preserve" text-anchor="middle" x="587.62" y="-517.33" font-family="Arial" font-size="14.00">sequences::zipped_forward_short_reads</text>
</g>
<!-- given&#45;&gt;sequences::zipped_forward_short_reads -->
<g id="edge2" class="edge">
<title>given&#45;&gt;sequences::zipped_forward_short_reads</title>
<path fill="none" stroke="black" d="M688.07,-720.21C669.34,-683.43 624.54,-595.48 601.63,-550.5"/>
<polygon fill="black" stroke="black" points="604.79,-548.98 597.13,-541.66 598.55,-552.16 604.79,-548.98"/>
</g>
<!-- transcriptomics::experiment -->
<g id="node4" class="node">
<title>transcriptomics::experiment</title>
<polygon fill="none" stroke="black" points="1190.88,-684 978.38,-684 978.38,-648 1190.88,-648 1190.88,-684"/>
<text xml:space="preserve" text-anchor="middle" x="1084.62" y="-661.33" font-family="Arial" font-size="14.00">transcriptomics::experiment</text>
</g>
<!-- given&#45;&gt;transcriptomics::experiment -->
<g id="edge9" class="edge">
<title>given&#45;&gt;transcriptomics::experiment</title>
<path fill="none" stroke="black" d="M731.74,-730.66C786.49,-720.79 894.44,-701.31 976.6,-686.49"/>
<polygon fill="black" stroke="black" points="977.04,-689.97 986.26,-684.75 975.8,-683.08 977.04,-689.97"/>
</g>
<!-- sequences::assembly -->
<g id="node5" class="node">
<title>sequences::assembly</title>
<polygon fill="none" stroke="black" points="165.25,-612 0,-612 0,-576 165.25,-576 165.25,-612"/>
<text xml:space="preserve" text-anchor="middle" x="82.62" y="-589.33" font-family="Arial" font-size="14.00">sequences::assembly</text>
</g>
<!-- given&#45;&gt;sequences::assembly -->
<g id="edge5" class="edge">
<title>given&#45;&gt;sequences::assembly</title>
<path fill="none" stroke="black" d="M660.04,-732.91C598.66,-725.66 471.26,-708.93 365.62,-684 286.75,-665.39 197.91,-636.03 141.16,-616.17"/>
<polygon fill="black" stroke="black" points="142.62,-612.97 132.03,-612.95 140.3,-619.57 142.62,-612.97"/>
</g>
<!-- sequences::zipped_reverse_short_reads -->
<g id="node6" class="node">
<title>sequences::zipped_reverse_short_reads</title>
<polygon fill="none" stroke="black" points="1082.62,-540 790.62,-540 790.62,-504 1082.62,-504 1082.62,-540"/>
<text xml:space="preserve" text-anchor="middle" x="936.62" y="-517.33" font-family="Arial" font-size="14.00">sequences::zipped_reverse_short_reads</text>
</g>
<!-- given&#45;&gt;sequences::zipped_reverse_short_reads -->
<g id="edge7" class="edge">
<title>given&#45;&gt;sequences::zipped_reverse_short_reads</title>
<path fill="none" stroke="black" d="M716.98,-722.31C747.69,-699.82 807.2,-654.93 853.62,-612 875.35,-591.91 898.15,-567.15 914.35,-548.86"/>
<polygon fill="black" stroke="black" points="916.77,-551.41 920.73,-541.58 911.51,-546.79 916.77,-551.41"/>
</g>
<!-- sequences::gbk -->
<g id="node7" class="node">
<title>sequences::gbk</title>
<polygon fill="none" stroke="black" points="500.38,-684 374.88,-684 374.88,-648 500.38,-648 500.38,-684"/>
<text xml:space="preserve" text-anchor="middle" x="437.62" y="-661.33" font-family="Arial" font-size="14.00">sequences::gbk</text>
</g>
<!-- given&#45;&gt;sequences::gbk -->
<g id="edge8" class="edge">
<title>given&#45;&gt;sequences::gbk</title>
<path fill="none" stroke="black" d="M664.08,-728.21C626.05,-717.93 561.9,-700.59 511.57,-686.98"/>
<polygon fill="black" stroke="black" points="512.76,-683.68 502.19,-684.45 510.93,-690.44 512.76,-683.68"/>
</g>
<!-- sequences::read_pair&#45;&gt;sequences::zipped_forward_short_reads -->
<g id="edge1" class="edge">
<title>sequences::read_pair&#45;&gt;sequences::zipped_forward_short_reads</title>
<path fill="none" stroke="black" d="M718.92,-575.52C695.44,-566.13 666.3,-554.47 641.44,-544.53"/>
<polygon fill="black" stroke="black" points="643.07,-541.41 632.48,-540.94 640.47,-547.91 643.07,-541.41"/>
</g>
<!-- sequences::read_pair&#45;&gt;sequences::zipped_reverse_short_reads -->
<g id="edge6" class="edge">
<title>sequences::read_pair&#45;&gt;sequences::zipped_reverse_short_reads</title>
<path fill="none" stroke="black" d="M806.08,-575.52C829.32,-566.17 858.14,-554.57 882.78,-544.66"/>
<polygon fill="black" stroke="black" points="884.04,-547.93 892.01,-540.95 881.43,-541.43 884.04,-547.93"/>
</g>
<!-- 3 minimap2_rnaseq_align -->
<g id="node13" class="node">
<title>3 minimap2_rnaseq_align</title>
<ellipse fill="#cccccc" stroke="black" cx="762.62" cy="-450" rx="135.91" ry="18"/>
<text xml:space="preserve" text-anchor="middle" x="762.62" y="-445.32" font-family="Arial" font-size="14.00">3 minimap2_rnaseq_align</text>
</g>
<!-- sequences::read_pair&#45;&gt;3 minimap2_rnaseq_align -->
<g id="edge17" class="edge">
<title>sequences::read_pair&#45;&gt;3 minimap2_rnaseq_align</title>
<path fill="none" stroke="black" d="M762.62,-575.59C762.62,-551.61 762.62,-508.14 762.62,-479.42"/>
<polygon fill="black" stroke="black" points="766.13,-479.62 762.63,-469.62 759.13,-479.62 766.13,-479.62"/>
</g>
<!-- sequences::zipped_forward_short_reads&#45;&gt;3 minimap2_rnaseq_align -->
<g id="edge18" class="edge">
<title>sequences::zipped_forward_short_reads&#45;&gt;3 minimap2_rnaseq_align</title>
<path fill="none" stroke="black" d="M631.33,-503.52C655.43,-493.88 685.49,-481.85 710.77,-471.74"/>
<polygon fill="black" stroke="black" points="711.89,-475.06 719.87,-468.1 709.29,-468.57 711.89,-475.06"/>
</g>
<!-- transcriptomics::experiment&#45;&gt;sequences::read_pair -->
<g id="edge3" class="edge">
<title>transcriptomics::experiment&#45;&gt;sequences::read_pair</title>
<path fill="none" stroke="black" d="M1004.2,-647.52C958.59,-637.6 901.35,-625.16 854.04,-614.87"/>
<polygon fill="black" stroke="black" points="854.85,-611.47 844.34,-612.76 853.37,-618.31 854.85,-611.47"/>
</g>
<!-- 4 organellar_count_matrix -->
<g id="node15" class="node">
<title>4 organellar_count_matrix</title>
<ellipse fill="#cccccc" stroke="black" cx="762.62" cy="-306" rx="138.02" ry="18"/>
<text xml:space="preserve" text-anchor="middle" x="762.62" y="-301.32" font-family="Arial" font-size="14.00">4 organellar_count_matrix</text>
</g>
<!-- transcriptomics::experiment&#45;&gt;4 organellar_count_matrix -->
<g id="edge21" class="edge">
<title>transcriptomics::experiment&#45;&gt;4 organellar_count_matrix</title>
<path fill="none" stroke="black" d="M1089.89,-647.7C1097.48,-621.14 1110.62,-568.61 1110.62,-523 1110.62,-523 1110.62,-523 1110.62,-449 1110.62,-392.34 950.46,-347.2 847.45,-324.03"/>
<polygon fill="black" stroke="black" points="848.43,-320.66 837.9,-321.91 846.91,-327.5 848.43,-320.66"/>
</g>
<!-- 5 deseq2 -->
<g id="node17" class="node">
<title>5 deseq2</title>
<ellipse fill="#cccccc" stroke="black" cx="835.62" cy="-162" rx="56.47" ry="18"/>
<text xml:space="preserve" text-anchor="middle" x="835.62" y="-157.32" font-family="Arial" font-size="14.00">5 deseq2</text>
</g>
<!-- transcriptomics::experiment&#45;&gt;5 deseq2 -->
<g id="edge25" class="edge">
<title>transcriptomics::experiment&#45;&gt;5 deseq2</title>
<path fill="none" stroke="black" d="M1098.2,-647.76C1116.98,-622.1 1148.62,-571.67 1148.62,-523 1148.62,-523 1148.62,-523 1148.62,-305 1148.62,-198.14 995.44,-171.29 903.4,-164.81"/>
<polygon fill="black" stroke="black" points="903.66,-161.32 893.46,-164.18 903.21,-168.31 903.66,-161.32"/>
</g>
<!-- 2 blast_contamination_check -->
<g id="node11" class="node">
<title>2 blast_contamination_check</title>
<ellipse fill="#cccccc" stroke="black" cx="210.62" cy="-450" rx="151.7" ry="18"/>
<text xml:space="preserve" text-anchor="middle" x="210.62" y="-445.32" font-family="Arial" font-size="14.00">2 blast_contamination_check</text>
</g>
<!-- sequences::assembly&#45;&gt;2 blast_contamination_check -->
<g id="edge13" class="edge">
<title>sequences::assembly&#45;&gt;2 blast_contamination_check</title>
<path fill="none" stroke="black" d="M83.21,-575.73C84.71,-556.31 89.79,-524.76 106.62,-504 117.62,-490.44 132.99,-480.01 148.54,-472.13"/>
<polygon fill="black" stroke="black" points="149.83,-475.4 157.38,-467.96 146.84,-469.06 149.83,-475.4"/>
</g>
<!-- sequences::zipped_reverse_short_reads&#45;&gt;3 minimap2_rnaseq_align -->
<g id="edge19" class="edge">
<title>sequences::zipped_reverse_short_reads&#45;&gt;3 minimap2_rnaseq_align</title>
<path fill="none" stroke="black" d="M893.17,-503.52C869.21,-493.88 839.32,-481.85 814.19,-471.74"/>
<polygon fill="black" stroke="black" points="815.72,-468.59 805.14,-468.1 813.11,-475.08 815.72,-468.59"/>
</g>
<!-- 1 genbank_to_reference -->
<g id="node8" class="node">
<title>1 genbank_to_reference</title>
<ellipse fill="#cccccc" stroke="black" cx="311.62" cy="-594" rx="128.02" ry="18"/>
<text xml:space="preserve" text-anchor="middle" x="311.62" y="-589.33" font-family="Arial" font-size="14.00">1 genbank_to_reference</text>
</g>
<!-- sequences::gbk&#45;&gt;1 genbank_to_reference -->
<g id="edge10" class="edge">
<title>sequences::gbk&#45;&gt;1 genbank_to_reference</title>
<path fill="none" stroke="black" d="M406.15,-647.52C389.7,-638.38 369.39,-627.09 351.81,-617.32"/>
<polygon fill="black" stroke="black" points="353.59,-614.31 343.15,-612.51 350.19,-620.43 353.59,-614.31"/>
</g>
<!-- transcriptomics::organellar_reference -->
<g id="node9" class="node">
<title>transcriptomics::organellar_reference</title>
<polygon fill="none" stroke="black" points="423,-540 148.25,-540 148.25,-504 423,-504 423,-540"/>
<text xml:space="preserve" text-anchor="middle" x="285.62" y="-517.33" font-family="Arial" font-size="14.00">transcriptomics::organellar_reference</text>
</g>
<!-- 1 genbank_to_reference&#45;&gt;transcriptomics::organellar_reference -->
<g id="edge11" class="edge">
<title>1 genbank_to_reference&#45;&gt;transcriptomics::organellar_reference</title>
<path fill="none" stroke="black" d="M305.2,-575.7C302.4,-568.15 299.04,-559.12 295.91,-550.68"/>
<polygon fill="black" stroke="black" points="299.27,-549.68 292.51,-541.52 292.71,-552.12 299.27,-549.68"/>
</g>
<!-- transcriptomics::organellar_gff -->
<g id="node10" class="node">
<title>transcriptomics::organellar_gff</title>
<polygon fill="none" stroke="black" points="608.75,-468 380.5,-468 380.5,-432 608.75,-432 608.75,-468"/>
<text xml:space="preserve" text-anchor="middle" x="494.62" y="-445.32" font-family="Arial" font-size="14.00">transcriptomics::organellar_gff</text>
</g>
<!-- 1 genbank_to_reference&#45;&gt;transcriptomics::organellar_gff -->
<g id="edge12" class="edge">
<title>1 genbank_to_reference&#45;&gt;transcriptomics::organellar_gff</title>
<path fill="none" stroke="black" d="M231.24,-579.64C171.84,-566.35 106.59,-542.33 139.62,-504 141.57,-501.75 267.62,-483.31 368.96,-468.8"/>
<polygon fill="black" stroke="black" points="369.34,-472.28 378.75,-467.4 368.35,-465.36 369.34,-472.28"/>
</g>
<!-- transcriptomics::organellar_reference&#45;&gt;2 blast_contamination_check -->
<g id="edge14" class="edge">
<title>transcriptomics::organellar_reference&#45;&gt;2 blast_contamination_check</title>
<path fill="none" stroke="black" d="M267.09,-503.7C258.16,-495.37 247.29,-485.22 237.48,-476.07"/>
<polygon fill="black" stroke="black" points="240.02,-473.64 230.32,-469.38 235.24,-478.76 240.02,-473.64"/>
</g>
<!-- transcriptomics::organellar_reference&#45;&gt;3 minimap2_rnaseq_align -->
<g id="edge16" class="edge">
<title>transcriptomics::organellar_reference&#45;&gt;3 minimap2_rnaseq_align</title>
<path fill="none" stroke="black" d="M404.76,-503.52C484.16,-491.86 587.34,-476.72 662.49,-465.69"/>
<polygon fill="black" stroke="black" points="662.95,-469.16 672.34,-464.25 661.94,-462.24 662.95,-469.16"/>
</g>
<!-- transcriptomics::organellar_gff&#45;&gt;4 organellar_count_matrix -->
<g id="edge23" class="edge">
<title>transcriptomics::organellar_gff&#45;&gt;4 organellar_count_matrix</title>
<path fill="none" stroke="black" d="M518.93,-431.53C546.06,-412.48 591.68,-381.82 633.62,-360 656.8,-347.94 683.36,-336.63 706.33,-327.58"/>
<polygon fill="black" stroke="black" points="707.49,-330.89 715.54,-324.01 704.95,-324.37 707.49,-330.89"/>
</g>
<!-- transcriptomics::contamination_report -->
<g id="node12" class="node">
<title>transcriptomics::contamination_report</title>
<polygon fill="none" stroke="black" points="541,-324 260.25,-324 260.25,-288 541,-288 541,-324"/>
<text xml:space="preserve" text-anchor="middle" x="400.62" y="-301.32" font-family="Arial" font-size="14.00">transcriptomics::contamination_report</text>
</g>
<!-- 2 blast_contamination_check&#45;&gt;transcriptomics::contamination_report -->
<g id="edge15" class="edge">
<title>2 blast_contamination_check&#45;&gt;transcriptomics::contamination_report</title>
<path fill="none" stroke="black" d="M233.54,-431.87C267.12,-406.78 329.83,-359.91 368.15,-331.27"/>
<polygon fill="black" stroke="black" points="370.2,-334.11 376.12,-325.32 366.01,-328.5 370.2,-334.11"/>
</g>
<!-- target -->
<g id="node19" class="node">
<title>target</title>
<ellipse fill="#cccccc" stroke="black" cx="688.62" cy="-18" rx="40.16" ry="18"/>
<text xml:space="preserve" text-anchor="middle" x="688.62" y="-13.32" font-family="Arial" font-size="14.00">target</text>
</g>
<!-- transcriptomics::contamination_report&#45;&gt;target -->
<g id="edge30" class="edge">
<title>transcriptomics::contamination_report&#45;&gt;target</title>
<path fill="none" stroke="black" d="M418.21,-287.54C467.69,-238.4 608.22,-98.85 664.69,-42.76"/>
<polygon fill="black" stroke="black" points="667,-45.41 671.63,-35.88 662.07,-40.44 667,-45.41"/>
</g>
<!-- transcriptomics::organellar_bam -->
<g id="node14" class="node">
<title>transcriptomics::organellar_bam</title>
<polygon fill="none" stroke="black" points="882.75,-396 642.5,-396 642.5,-360 882.75,-360 882.75,-396"/>
<text xml:space="preserve" text-anchor="middle" x="762.62" y="-373.32" font-family="Arial" font-size="14.00">transcriptomics::organellar_bam</text>
</g>
<!-- 3 minimap2_rnaseq_align&#45;&gt;transcriptomics::organellar_bam -->
<g id="edge20" class="edge">
<title>3 minimap2_rnaseq_align&#45;&gt;transcriptomics::organellar_bam</title>
<path fill="none" stroke="black" d="M762.62,-431.7C762.62,-424.41 762.62,-415.73 762.62,-407.54"/>
<polygon fill="black" stroke="black" points="766.13,-407.62 762.63,-397.62 759.13,-407.62 766.13,-407.62"/>
</g>
<!-- transcriptomics::organellar_bam&#45;&gt;4 organellar_count_matrix -->
<g id="edge22" class="edge">
<title>transcriptomics::organellar_bam&#45;&gt;4 organellar_count_matrix</title>
<path fill="none" stroke="black" d="M762.62,-359.7C762.62,-352.41 762.62,-343.73 762.62,-335.54"/>
<polygon fill="black" stroke="black" points="766.13,-335.62 762.63,-325.62 759.13,-335.62 766.13,-335.62"/>
</g>
<!-- transcriptomics::organellar_gene_count_table -->
<g id="node16" class="node">
<title>transcriptomics::organellar_gene_count_table</title>
<polygon fill="none" stroke="black" points="928.12,-252 597.12,-252 597.12,-216 928.12,-216 928.12,-252"/>
<text xml:space="preserve" text-anchor="middle" x="762.62" y="-229.32" font-family="Arial" font-size="14.00">transcriptomics::organellar_gene_count_table</text>
</g>
<!-- 4 organellar_count_matrix&#45;&gt;transcriptomics::organellar_gene_count_table -->
<g id="edge24" class="edge">
<title>4 organellar_count_matrix&#45;&gt;transcriptomics::organellar_gene_count_table</title>
<path fill="none" stroke="black" d="M762.62,-287.7C762.62,-280.41 762.62,-271.73 762.62,-263.54"/>
<polygon fill="black" stroke="black" points="766.13,-263.62 762.63,-253.62 759.13,-263.62 766.13,-263.62"/>
</g>
<!-- transcriptomics::organellar_gene_count_table&#45;&gt;5 deseq2 -->
<g id="edge26" class="edge">
<title>transcriptomics::organellar_gene_count_table&#45;&gt;5 deseq2</title>
<path fill="none" stroke="black" d="M780.67,-215.7C789.55,-207.18 800.41,-196.76 810.13,-187.45"/>
<polygon fill="black" stroke="black" points="812.4,-190.12 817.2,-180.67 807.56,-185.06 812.4,-190.12"/>
</g>
<!-- transcriptomics::organellar_gene_count_table&#45;&gt;target -->
<g id="edge29" class="edge">
<title>transcriptomics::organellar_gene_count_table&#45;&gt;target</title>
<path fill="none" stroke="black" d="M753.63,-215.64C741.64,-191.9 720.45,-147.71 707.62,-108 701.23,-88.21 696.39,-65.24 693.2,-47.6"/>
<polygon fill="black" stroke="black" points="696.66,-47.08 691.5,-37.83 689.76,-48.28 696.66,-47.08"/>
</g>
<!-- transcriptomics::deseq2_results -->
<g id="node18" class="node">
<title>transcriptomics::deseq2_results</title>
<polygon fill="none" stroke="black" points="954.25,-108 717,-108 717,-72 954.25,-72 954.25,-108"/>
<text xml:space="preserve" text-anchor="middle" x="835.62" y="-85.33" font-family="Arial" font-size="14.00">transcriptomics::deseq2_results</text>
</g>
<!-- 5 deseq2&#45;&gt;transcriptomics::deseq2_results -->
<g id="edge27" class="edge">
<title>5 deseq2&#45;&gt;transcriptomics::deseq2_results</title>
<path fill="none" stroke="black" d="M835.62,-143.7C835.62,-136.41 835.62,-127.73 835.62,-119.54"/>
<polygon fill="black" stroke="black" points="839.13,-119.62 835.63,-109.62 832.13,-119.62 839.13,-119.62"/>
</g>
<!-- transcriptomics::deseq2_results&#45;&gt;target -->
<g id="edge28" class="edge">
<title>transcriptomics::deseq2_results&#45;&gt;target</title>
<path fill="none" stroke="black" d="M798.91,-71.52C776.45,-60.82 747.8,-47.18 725.34,-36.48"/>
<polygon fill="black" stroke="black" points="727.08,-33.44 716.55,-32.3 724.07,-39.76 727.08,-33.44"/>
</g>
</g>
</svg>
