<?xml version="1.0" encoding="UTF-8" standalone="no"?>
<!DOCTYPE svg PUBLIC "-//W3C//DTD SVG 1.1//EN"
 "http://www.w3.org/Graphics/SVG/1.1/DTD/svg11.dtd">
<!-- Generated by graphviz version 13.1.1 (20250720.1534)
 -->
<!-- Title: G Pages: 1 -->
<svg width="1234pt" height="980pt"
 viewBox="0.00 0.00 1234.00 980.00" xmlns="http://www.w3.org/2000/svg" xmlns:xlink="http://www.w3.org/1999/xlink">
<g id="graph0" class="graph" transform="scale(1 1) rotate(0) translate(4 976)">
<title>G</title>
<polygon fill="white" stroke="none" points="-4,4 -4,-976 1230.41,-976 1230.41,4 -4,4"/>
<!-- given -->
<g id="node1" class="node">
<title>given</title>
<ellipse fill="#cccccc" stroke="black" cx="662.78" cy="-954" rx="38.06" ry="18"/>
<text xml:space="preserve" text-anchor="middle" x="662.78" y="-949.33" font-family="Arial" font-size="14.00">given</text>
</g>
<!-- annotation::busco_source -->
<g id="node2" class="node">
<title>annotation::busco_source</title>
<polygon fill="none" stroke="black" points="1032.28,-900 839.28,-900 839.28,-864 1032.28,-864 1032.28,-900"/>
<text xml:space="preserve" text-anchor="middle" x="935.78" y="-877.33" font-family="Arial" font-size="14.00">annotation::busco_source</text>
</g>
<!-- given&#45;&gt;annotation::busco_source -->
<g id="edge1" class="edge">
<title>given&#45;&gt;annotation::busco_source</title>
<path fill="none" stroke="black" d="M695.71,-944.56C735.38,-934.38 803.37,-916.95 856.88,-903.23"/>
<polygon fill="black" stroke="black" points="857.44,-906.7 866.26,-900.83 855.7,-899.92 857.44,-906.7"/>
</g>
<!-- transcriptomics::experiment -->
<g id="node3" class="node">
<title>transcriptomics::experiment</title>
<polygon fill="none" stroke="black" points="657.03,-900 444.53,-900 444.53,-864 657.03,-864 657.03,-900"/>
<text xml:space="preserve" text-anchor="middle" x="550.78" y="-877.33" font-family="Arial" font-size="14.00">transcriptomics::experiment</text>
</g>
<!-- given&#45;&gt;transcriptomics::experiment -->
<g id="edge9" class="edge">
<title>given&#45;&gt;transcriptomics::experiment</title>
<path fill="none" stroke="black" d="M640.39,-939C625.41,-929.64 605.35,-917.11 588.01,-906.27"/>
<polygon fill="black" stroke="black" points="590.32,-903.58 579.99,-901.25 586.61,-909.52 590.32,-903.58"/>
</g>
<!-- sequences::assembly -->
<g id="node4" class="node">
<title>sequences::assembly</title>
<polygon fill="none" stroke="black" points="799.41,-756 634.16,-756 634.16,-720 799.41,-720 799.41,-756"/>
<text xml:space="preserve" text-anchor="middle" x="716.78" y="-733.33" font-family="Arial" font-size="14.00">sequences::assembly</text>
</g>
<!-- given&#45;&gt;sequences::assembly -->
<g id="edge3" class="edge">
<title>given&#45;&gt;sequences::assembly</title>
<path fill="none" stroke="black" d="M667.11,-935.85C676.39,-899.07 698.29,-812.29 709.66,-767.24"/>
<polygon fill="black" stroke="black" points="713.01,-768.25 712.07,-757.7 706.22,-766.54 713.01,-768.25"/>
</g>
<!-- transcriptomics::star_bam -->
<g id="node5" class="node">
<title>transcriptomics::star_bam</title>
<polygon fill="none" stroke="black" points="463.53,-828 266.03,-828 266.03,-792 463.53,-792 463.53,-828"/>
<text xml:space="preserve" text-anchor="middle" x="364.78" y="-805.33" font-family="Arial" font-size="14.00">transcriptomics::star_bam</text>
</g>
<!-- given&#45;&gt;transcriptomics::star_bam -->
<g id="edge5" class="edge">
<title>given&#45;&gt;transcriptomics::star_bam</title>
<path fill="none" stroke="black" d="M624.93,-951.66C577.35,-948.39 494.8,-937.28 435.78,-900 411.59,-884.72 392.06,-858.26 379.65,-838.15"/>
<polygon fill="black" stroke="black" points="382.7,-836.43 374.59,-829.61 376.67,-840 382.7,-836.43"/>
</g>
<!-- transcriptomics::stringtie_gtf -->
<g id="node6" class="node">
<title>transcriptomics::stringtie_gtf</title>
<polygon fill="none" stroke="black" points="248.28,-828 31.28,-828 31.28,-792 248.28,-792 248.28,-828"/>
<text xml:space="preserve" text-anchor="middle" x="139.78" y="-805.33" font-family="Arial" font-size="14.00">transcriptomics::stringtie_gtf</text>
</g>
<!-- given&#45;&gt;transcriptomics::stringtie_gtf -->
<g id="edge7" class="edge">
<title>given&#45;&gt;transcriptomics::stringtie_gtf</title>
<path fill="none" stroke="black" d="M626.73,-947.57C574.75,-939.37 475.99,-922.38 393.78,-900 323.49,-880.86 244.61,-852.03 193.67,-832.4"/>
<polygon fill="black" stroke="black" points="195.24,-829.25 184.65,-828.91 192.71,-835.78 195.24,-829.25"/>
</g>
<!-- annotation::eggnog_data -->
<g id="node7" class="node">
<title>annotation::eggnog_data</title>
<polygon fill="none" stroke="black" points="1226.41,-684 1037.16,-684 1037.16,-648 1226.41,-648 1226.41,-684"/>
<text xml:space="preserve" text-anchor="middle" x="1131.78" y="-661.33" font-family="Arial" font-size="14.00">annotation::eggnog_data</text>
</g>
<!-- given&#45;&gt;annotation::eggnog_data -->
<g id="edge8" class="edge">
<title>given&#45;&gt;annotation::eggnog_data</title>
<path fill="none" stroke="black" d="M700.66,-951.26C784.74,-946.83 984.06,-933.06 1041.78,-900 1114.05,-858.62 1128.54,-748.2 1131.27,-695.62"/>
<polygon fill="black" stroke="black" points="1134.75,-696.08 1131.66,-685.95 1127.76,-695.8 1134.75,-696.08"/>
</g>
<!-- 1 downloadBuscoLineage -->
<g id="node8" class="node">
<title>1 downloadBuscoLineage</title>
<ellipse fill="#cccccc" stroke="black" cx="954.78" cy="-810" rx="134.86" ry="18"/>
<text xml:space="preserve" text-anchor="middle" x="954.78" y="-805.33" font-family="Arial" font-size="14.00">1 downloadBuscoLineage</text>
</g>
<!-- annotation::busco_source&#45;&gt;1 downloadBuscoLineage -->
<g id="edge10" class="edge">
<title>annotation::busco_source&#45;&gt;1 downloadBuscoLineage</title>
<path fill="none" stroke="black" d="M940.48,-863.7C942.51,-856.24 944.93,-847.32 947.19,-838.97"/>
<polygon fill="black" stroke="black" points="950.5,-840.13 949.74,-829.57 943.75,-838.3 950.5,-840.13"/>
</g>
<!-- transcriptomics::experiment&#45;&gt;sequences::assembly -->
<g id="edge2" class="edge">
<title>transcriptomics::experiment&#45;&gt;sequences::assembly</title>
<path fill="none" stroke="black" d="M574.5,-863.59C588,-853.48 605.1,-840.34 619.78,-828 644.52,-807.22 671.51,-782.25 690.73,-764.06"/>
<polygon fill="black" stroke="black" points="693.04,-766.69 697.88,-757.26 688.22,-761.62 693.04,-766.69"/>
</g>
<!-- transcriptomics::experiment&#45;&gt;transcriptomics::star_bam -->
<g id="edge4" class="edge">
<title>transcriptomics::experiment&#45;&gt;transcriptomics::star_bam</title>
<path fill="none" stroke="black" d="M504.33,-863.52C479.27,-854.08 448.13,-842.37 421.63,-832.39"/>
<polygon fill="black" stroke="black" points="422.98,-829.16 412.39,-828.91 420.51,-835.71 422.98,-829.16"/>
</g>
<!-- transcriptomics::experiment&#45;&gt;transcriptomics::stringtie_gtf -->
<g id="edge6" class="edge">
<title>transcriptomics::experiment&#45;&gt;transcriptomics::stringtie_gtf</title>
<path fill="none" stroke="black" d="M448.13,-863.52C388.93,-853.43 314.38,-840.74 253.41,-830.35"/>
<polygon fill="black" stroke="black" points="254.13,-826.93 243.69,-828.7 252.96,-833.83 254.13,-826.93"/>
</g>
<!-- 2 merge_bams -->
<g id="node10" class="node">
<title>2 merge_bams</title>
<ellipse fill="#cccccc" stroke="black" cx="427.78" cy="-738" rx="83.3" ry="18"/>
<text xml:space="preserve" text-anchor="middle" x="427.78" y="-733.33" font-family="Arial" font-size="14.00">2 merge_bams</text>
</g>
<!-- transcriptomics::experiment&#45;&gt;2 merge_bams -->
<g id="edge12" class="edge">
<title>transcriptomics::experiment&#45;&gt;2 merge_bams</title>
<path fill="none" stroke="black" d="M545.04,-863.74C538.05,-844.6 524.76,-813.59 505.78,-792 495.28,-780.04 481.5,-769.53 468.45,-761.08"/>
<polygon fill="black" stroke="black" points="470.32,-758.11 459.97,-755.83 466.63,-764.07 470.32,-758.11"/>
</g>
<!-- 3 braker3 -->
<g id="node12" class="node">
<title>3 braker3</title>
<ellipse fill="#cccccc" stroke="black" cx="565.78" cy="-594" rx="58.57" ry="18"/>
<text xml:space="preserve" text-anchor="middle" x="565.78" y="-589.33" font-family="Arial" font-size="14.00">3 braker3</text>
</g>
<!-- transcriptomics::experiment&#45;&gt;3 braker3 -->
<g id="edge15" class="edge">
<title>transcriptomics::experiment&#45;&gt;3 braker3</title>
<path fill="none" stroke="black" d="M551.7,-863.54C554.21,-815.76 561.19,-682.51 564.28,-623.61"/>
<polygon fill="black" stroke="black" points="567.77,-623.91 564.8,-613.74 560.78,-623.55 567.77,-623.91"/>
</g>
<!-- 4 stringtie_merge -->
<g id="node15" class="node">
<title>4 stringtie_merge</title>
<ellipse fill="#cccccc" stroke="black" cx="236.78" cy="-450" rx="96.98" ry="18"/>
<text xml:space="preserve" text-anchor="middle" x="236.78" y="-445.32" font-family="Arial" font-size="14.00">4 stringtie_merge</text>
</g>
<!-- transcriptomics::experiment&#45;&gt;4 stringtie_merge -->
<g id="edge20" class="edge">
<title>transcriptomics::experiment&#45;&gt;4 stringtie_merge</title>
<path fill="none" stroke="black" d="M536,-863.61C514.51,-838.41 476.76,-794.46 472.78,-792 419.25,-758.88 386.42,-793.41 335.78,-756 244.92,-688.87 232.75,-648.65 201.78,-540 197.4,-524.61 197.18,-519.32 201.78,-504 204.63,-494.54 209.76,-485.21 215.24,-477.08"/>
<polygon fill="black" stroke="black" points="218.03,-479.2 221.08,-469.05 212.37,-475.08 218.03,-479.2"/>
</g>
<!-- 5 gffread_proteins -->
<g id="node17" class="node">
<title>5 gffread_proteins</title>
<ellipse fill="#cccccc" stroke="black" cx="825.78" cy="-450" rx="99.61" ry="18"/>
<text xml:space="preserve" text-anchor="middle" x="825.78" y="-445.32" font-family="Arial" font-size="14.00">5 gffread_proteins</text>
</g>
<!-- transcriptomics::experiment&#45;&gt;5 gffread_proteins -->
<g id="edge24" class="edge">
<title>transcriptomics::experiment&#45;&gt;5 gffread_proteins</title>
<path fill="none" stroke="black" d="M627.02,-863.54C685.54,-846.13 763.72,-813.48 808.78,-756 833.74,-724.17 827.78,-707.45 827.78,-667 827.78,-667 827.78,-667 827.78,-593 827.78,-553.74 827.01,-508.37 826.42,-479.69"/>
<polygon fill="black" stroke="black" points="829.93,-479.92 826.22,-470 822.93,-480.07 829.93,-479.92"/>
</g>
<!-- 9 pydeseq2 -->
<g id="node25" class="node">
<title>9 pydeseq2</title>
<ellipse fill="#cccccc" stroke="black" cx="265.78" cy="-162" rx="68.57" ry="18"/>
<text xml:space="preserve" text-anchor="middle" x="265.78" y="-157.32" font-family="Arial" font-size="14.00">9 pydeseq2</text>
</g>
<!-- transcriptomics::experiment&#45;&gt;9 pydeseq2 -->
<g id="edge37" class="edge">
<title>transcriptomics::experiment&#45;&gt;9 pydeseq2</title>
<path fill="none" stroke="black" d="M444.05,-876.96C298.58,-870.46 52.54,-855.53 21.78,-828 -8.35,-801.02 2.78,-779.45 2.78,-739 2.78,-739 2.78,-739 2.78,-305 2.78,-218.7 113.79,-184.6 191.57,-171.3"/>
<polygon fill="black" stroke="black" points="191.98,-174.78 201.29,-169.72 190.86,-167.86 191.98,-174.78"/>
</g>
<!-- 10 stringtie_count_matrix -->
<g id="node27" class="node">
<title>10 stringtie_count_matrix</title>
<ellipse fill="#cccccc" stroke="black" cx="650.78" cy="-162" rx="135.91" ry="18"/>
<text xml:space="preserve" text-anchor="middle" x="650.78" y="-157.32" font-family="Arial" font-size="14.00">10 stringtie_count_matrix</text>
</g>
<!-- transcriptomics::experiment&#45;&gt;10 stringtie_count_matrix -->
<g id="edge40" class="edge">
<title>transcriptomics::experiment&#45;&gt;10 stringtie_count_matrix</title>
<path fill="none" stroke="black" d="M558.77,-863.86C588.65,-799.56 692.55,-574.62 699.78,-540 703.06,-524.34 699.91,-520 699.78,-504 699.34,-448.44 697.78,-434.56 697.78,-379 697.78,-379 697.78,-379 697.78,-305 697.78,-263.51 679.47,-218.49 665.71,-190.51"/>
<polygon fill="black" stroke="black" points="668.86,-188.99 661.21,-181.67 662.63,-192.17 668.86,-188.99"/>
</g>
<!-- sequences::assembly&#45;&gt;3 braker3 -->
<g id="edge16" class="edge">
<title>sequences::assembly&#45;&gt;3 braker3</title>
<path fill="none" stroke="black" d="M698.27,-719.59C671.46,-694.38 621.74,-647.62 591.42,-619.11"/>
<polygon fill="black" stroke="black" points="593.84,-616.58 584.15,-612.27 589.04,-621.67 593.84,-616.58"/>
</g>
<!-- sequences::assembly&#45;&gt;5 gffread_proteins -->
<g id="edge26" class="edge">
<title>sequences::assembly&#45;&gt;5 gffread_proteins</title>
<path fill="none" stroke="black" d="M723.44,-719.54C741.72,-671.56 792.86,-537.39 815.16,-478.88"/>
<polygon fill="black" stroke="black" points="818.39,-480.24 818.68,-469.65 811.85,-477.74 818.39,-480.24"/>
</g>
<!-- transcriptomics::star_bam&#45;&gt;2 merge_bams -->
<g id="edge13" class="edge">
<title>transcriptomics::star_bam&#45;&gt;2 merge_bams</title>
<path fill="none" stroke="black" d="M380.36,-791.7C387.76,-783.47 396.75,-773.48 404.91,-764.42"/>
<polygon fill="black" stroke="black" points="407.29,-767 411.38,-757.23 402.09,-762.32 407.29,-767"/>
</g>
<!-- 6 stringtie_quant -->
<g id="node19" class="node">
<title>6 stringtie_quant</title>
<ellipse fill="#cccccc" stroke="black" cx="240.78" cy="-306" rx="94.35" ry="18"/>
<text xml:space="preserve" text-anchor="middle" x="240.78" y="-301.32" font-family="Arial" font-size="14.00">6 stringtie_quant</text>
</g>
<!-- transcriptomics::star_bam&#45;&gt;6 stringtie_quant -->
<g id="edge28" class="edge">
<title>transcriptomics::star_bam&#45;&gt;6 stringtie_quant</title>
<path fill="none" stroke="black" d="M335.35,-791.61C320.53,-782.1 302.78,-769.52 288.78,-756 183.78,-654.56 168.18,-609.13 130.78,-468 118.48,-421.55 99.88,-400.47 125.78,-360 136.19,-343.75 152.98,-332.41 170.55,-324.53"/>
<polygon fill="black" stroke="black" points="171.61,-327.88 179.54,-320.85 168.96,-321.4 171.61,-327.88"/>
</g>
<!-- transcriptomics::stringtie_gtf&#45;&gt;4 stringtie_merge -->
<g id="edge21" class="edge">
<title>transcriptomics::stringtie_gtf&#45;&gt;4 stringtie_merge</title>
<path fill="none" stroke="black" d="M136.95,-791.79C129.82,-743.08 115.32,-601.46 168.78,-504 175.3,-492.12 185.7,-482.02 196.44,-473.92"/>
<polygon fill="black" stroke="black" points="198.44,-476.8 204.62,-468.2 194.42,-471.06 198.44,-476.8"/>
</g>
<!-- 8 eggnog_mapper -->
<g id="node23" class="node">
<title>8 eggnog_mapper</title>
<ellipse fill="#cccccc" stroke="black" cx="1080.78" cy="-306" rx="100.14" ry="18"/>
<text xml:space="preserve" text-anchor="middle" x="1080.78" y="-301.32" font-family="Arial" font-size="14.00">8 eggnog_mapper</text>
</g>
<!-- annotation::eggnog_data&#45;&gt;8 eggnog_mapper -->
<g id="edge35" class="edge">
<title>annotation::eggnog_data&#45;&gt;8 eggnog_mapper</title>
<path fill="none" stroke="black" d="M1132.19,-647.51C1132.77,-620.71 1133.78,-567.87 1133.78,-523 1133.78,-523 1133.78,-523 1133.78,-449 1133.78,-408.55 1130.17,-397.4 1114.78,-360 1111.06,-350.94 1105.78,-341.74 1100.48,-333.59"/>
<polygon fill="black" stroke="black" points="1103.5,-331.81 1094.98,-325.52 1097.72,-335.75 1103.5,-331.81"/>
</g>
<!-- annotation::busco_lineage -->
<g id="node9" class="node">
<title>annotation::busco_lineage</title>
<polygon fill="none" stroke="black" points="1053.53,-612 856.03,-612 856.03,-576 1053.53,-576 1053.53,-612"/>
<text xml:space="preserve" text-anchor="middle" x="954.78" y="-589.33" font-family="Arial" font-size="14.00">annotation::busco_lineage</text>
</g>
<!-- 1 downloadBuscoLineage&#45;&gt;annotation::busco_lineage -->
<g id="edge11" class="edge">
<title>1 downloadBuscoLineage&#45;&gt;annotation::busco_lineage</title>
<path fill="none" stroke="black" d="M954.78,-791.85C954.78,-755.14 954.78,-668.66 954.78,-623.53"/>
<polygon fill="black" stroke="black" points="958.28,-623.75 954.78,-613.75 951.28,-623.75 958.28,-623.75"/>
</g>
<!-- 7 busco -->
<g id="node21" class="node">
<title>7 busco</title>
<ellipse fill="#cccccc" stroke="black" cx="912.78" cy="-306" rx="49.63" ry="18"/>
<text xml:space="preserve" text-anchor="middle" x="912.78" y="-301.32" font-family="Arial" font-size="14.00">7 busco</text>
</g>
<!-- annotation::busco_lineage&#45;&gt;7 busco -->
<g id="edge32" class="edge">
<title>annotation::busco_lineage&#45;&gt;7 busco</title>
<path fill="none" stroke="black" d="M952.91,-575.57C949.67,-545.99 942.6,-484.09 934.78,-432 929.79,-398.7 922.92,-360.62 918.19,-335.33"/>
<polygon fill="black" stroke="black" points="921.69,-335.01 916.4,-325.83 914.81,-336.31 921.69,-335.01"/>
</g>
<!-- transcriptomics::merged_bam -->
<g id="node11" class="node">
<title>transcriptomics::merged_bam</title>
<polygon fill="none" stroke="black" points="539.66,-684 315.91,-684 315.91,-648 539.66,-648 539.66,-684"/>
<text xml:space="preserve" text-anchor="middle" x="427.78" y="-661.33" font-family="Arial" font-size="14.00">transcriptomics::merged_bam</text>
</g>
<!-- 2 merge_bams&#45;&gt;transcriptomics::merged_bam -->
<g id="edge14" class="edge">
<title>2 merge_bams&#45;&gt;transcriptomics::merged_bam</title>
<path fill="none" stroke="black" d="M427.78,-719.7C427.78,-712.41 427.78,-703.73 427.78,-695.54"/>
<polygon fill="black" stroke="black" points="431.28,-695.62 427.78,-685.62 424.28,-695.62 431.28,-695.62"/>
</g>
<!-- transcriptomics::merged_bam&#45;&gt;3 braker3 -->
<g id="edge17" class="edge">
<title>transcriptomics::merged_bam&#45;&gt;3 braker3</title>
<path fill="none" stroke="black" d="M462.25,-647.52C481.69,-637.65 506.07,-625.29 526.28,-615.04"/>
<polygon fill="black" stroke="black" points="527.74,-618.22 535.07,-610.58 524.57,-611.98 527.74,-618.22"/>
</g>
<!-- transcriptomics::braker3_gff -->
<g id="node13" class="node">
<title>transcriptomics::braker3_gff</title>
<polygon fill="none" stroke="black" points="423.03,-540 210.53,-540 210.53,-504 423.03,-504 423.03,-540"/>
<text xml:space="preserve" text-anchor="middle" x="316.78" y="-517.33" font-family="Arial" font-size="14.00">transcriptomics::braker3_gff</text>
</g>
<!-- 3 braker3&#45;&gt;transcriptomics::braker3_gff -->
<g id="edge18" class="edge">
<title>3 braker3&#45;&gt;transcriptomics::braker3_gff</title>
<path fill="none" stroke="black" d="M523.54,-581.13C486.96,-570.84 433.23,-555.74 389.71,-543.5"/>
<polygon fill="black" stroke="black" points="390.91,-540.2 380.34,-540.87 389.02,-546.94 390.91,-540.2"/>
</g>
<!-- transcriptomics::braker3_proteins -->
<g id="node14" class="node">
<title>transcriptomics::braker3_proteins</title>
<polygon fill="none" stroke="black" points="690.78,-540 440.78,-540 440.78,-504 690.78,-504 690.78,-540"/>
<text xml:space="preserve" text-anchor="middle" x="565.78" y="-517.33" font-family="Arial" font-size="14.00">transcriptomics::braker3_proteins</text>
</g>
<!-- 3 braker3&#45;&gt;transcriptomics::braker3_proteins -->
<g id="edge19" class="edge">
<title>3 braker3&#45;&gt;transcriptomics::braker3_proteins</title>
<path fill="none" stroke="black" d="M565.78,-575.7C565.78,-568.41 565.78,-559.73 565.78,-551.54"/>
<polygon fill="black" stroke="black" points="569.28,-551.62 565.78,-541.62 562.28,-551.62 569.28,-551.62"/>
</g>
<!-- transcriptomics::braker3_gff&#45;&gt;4 stringtie_merge -->
<g id="edge22" class="edge">
<title>transcriptomics::braker3_gff&#45;&gt;4 stringtie_merge</title>
<path fill="none" stroke="black" d="M297.01,-503.7C287.32,-495.22 275.49,-484.86 264.88,-475.58"/>
<polygon fill="black" stroke="black" points="267.3,-473.05 257.47,-469.1 262.69,-478.32 267.3,-473.05"/>
</g>
<!-- transcriptomics::braker3_gff&#45;&gt;5 gffread_proteins -->
<g id="edge25" class="edge">
<title>transcriptomics::braker3_gff&#45;&gt;5 gffread_proteins</title>
<path fill="none" stroke="black" d="M423.29,-505.21C426.15,-504.8 428.99,-504.39 431.78,-504 536.05,-489.28 655.99,-473.28 735.88,-462.75"/>
<polygon fill="black" stroke="black" points="735.92,-466.28 745.38,-461.5 735.01,-459.34 735.92,-466.28"/>
</g>
<!-- target -->
<g id="node29" class="node">
<title>target</title>
<ellipse fill="#cccccc" stroke="black" cx="650.78" cy="-18" rx="40.16" ry="18"/>
<text xml:space="preserve" text-anchor="middle" x="650.78" y="-13.32" font-family="Arial" font-size="14.00">target</text>
</g>
<!-- transcriptomics::braker3_gff&#45;&gt;target -->
<g id="edge46" class="edge">
<title>transcriptomics::braker3_gff&#45;&gt;target</title>
<path fill="none" stroke="black" d="M361.22,-503.58C407.95,-482 474.78,-440.41 474.78,-379 474.78,-379 474.78,-379 474.78,-161 474.78,-117.63 483.35,-101.88 514.78,-72 538.94,-49.04 574.18,-35.68 602.74,-28.12"/>
<polygon fill="black" stroke="black" points="603.37,-31.57 612.24,-25.77 601.69,-24.77 603.37,-31.57"/>
</g>
<!-- transcriptomics::merged_gtf -->
<g id="node16" class="node">
<title>transcriptomics::merged_gtf</title>
<polygon fill="none" stroke="black" points="347.03,-396 134.53,-396 134.53,-360 347.03,-360 347.03,-396"/>
<text xml:space="preserve" text-anchor="middle" x="240.78" y="-373.32" font-family="Arial" font-size="14.00">transcriptomics::merged_gtf</text>
</g>
<!-- 4 stringtie_merge&#45;&gt;transcriptomics::merged_gtf -->
<g id="edge23" class="edge">
<title>4 stringtie_merge&#45;&gt;transcriptomics::merged_gtf</title>
<path fill="none" stroke="black" d="M237.77,-431.7C238.19,-424.41 238.69,-415.73 239.15,-407.54"/>
<polygon fill="black" stroke="black" points="242.64,-407.8 239.72,-397.62 235.66,-407.4 242.64,-407.8"/>
</g>
<!-- transcriptomics::merged_gtf&#45;&gt;6 stringtie_quant -->
<g id="edge29" class="edge">
<title>transcriptomics::merged_gtf&#45;&gt;6 stringtie_quant</title>
<path fill="none" stroke="black" d="M240.78,-359.7C240.78,-352.41 240.78,-343.73 240.78,-335.54"/>
<polygon fill="black" stroke="black" points="244.28,-335.62 240.78,-325.62 237.28,-335.62 244.28,-335.62"/>
</g>
<!-- sequences::orfs -->
<g id="node18" class="node">
<title>sequences::orfs</title>
<polygon fill="none" stroke="black" points="1105.91,-396 979.66,-396 979.66,-360 1105.91,-360 1105.91,-396"/>
<text xml:space="preserve" text-anchor="middle" x="1042.78" y="-373.32" font-family="Arial" font-size="14.00">sequences::orfs</text>
</g>
<!-- 5 gffread_proteins&#45;&gt;sequences::orfs -->
<g id="edge27" class="edge">
<title>5 gffread_proteins&#45;&gt;sequences::orfs</title>
<path fill="none" stroke="black" d="M873.14,-433.72C903.86,-423.81 944.29,-410.77 977.97,-399.91"/>
<polygon fill="black" stroke="black" points="978.77,-403.33 987.21,-396.93 976.62,-396.67 978.77,-403.33"/>
</g>
<!-- sequences::orfs&#45;&gt;7 busco -->
<g id="edge31" class="edge">
<title>sequences::orfs&#45;&gt;7 busco</title>
<path fill="none" stroke="black" d="M1010.31,-359.52C991.83,-349.56 968.61,-337.06 949.47,-326.75"/>
<polygon fill="black" stroke="black" points="951.39,-323.81 940.92,-322.15 948.07,-329.97 951.39,-323.81"/>
</g>
<!-- sequences::orfs&#45;&gt;8 eggnog_mapper -->
<g id="edge34" class="edge">
<title>sequences::orfs&#45;&gt;8 eggnog_mapper</title>
<path fill="none" stroke="black" d="M1052.18,-359.7C1056.36,-351.98 1061.4,-342.71 1066.07,-334.11"/>
<polygon fill="black" stroke="black" points="1069.08,-335.89 1070.78,-325.43 1062.93,-332.55 1069.08,-335.89"/>
</g>
<!-- transcriptomics::stringtie_quant_gtf -->
<g id="node20" class="node">
<title>transcriptomics::stringtie_quant_gtf</title>
<polygon fill="none" stroke="black" points="397.91,-252 133.66,-252 133.66,-216 397.91,-216 397.91,-252"/>
<text xml:space="preserve" text-anchor="middle" x="265.78" y="-229.32" font-family="Arial" font-size="14.00">transcriptomics::stringtie_quant_gtf</text>
</g>
<!-- 6 stringtie_quant&#45;&gt;transcriptomics::stringtie_quant_gtf -->
<g id="edge30" class="edge">
<title>6 stringtie_quant&#45;&gt;transcriptomics::stringtie_quant_gtf</title>
<path fill="none" stroke="black" d="M246.96,-287.7C249.66,-280.15 252.88,-271.12 255.9,-262.68"/>
<polygon fill="black" stroke="black" points="259.1,-264.12 259.17,-253.53 252.51,-261.77 259.1,-264.12"/>
</g>
<!-- transcriptomics::stringtie_quant_gtf&#45;&gt;9 pydeseq2 -->
<g id="edge38" class="edge">
<title>transcriptomics::stringtie_quant_gtf&#45;&gt;9 pydeseq2</title>
<path fill="none" stroke="black" d="M265.78,-215.7C265.78,-208.41 265.78,-199.73 265.78,-191.54"/>
<polygon fill="black" stroke="black" points="269.28,-191.62 265.78,-181.62 262.28,-191.62 269.28,-191.62"/>
</g>
<!-- transcriptomics::stringtie_quant_gtf&#45;&gt;10 stringtie_count_matrix -->
<g id="edge41" class="edge">
<title>transcriptomics::stringtie_quant_gtf&#45;&gt;10 stringtie_count_matrix</title>
<path fill="none" stroke="black" d="M361.94,-215.52C423.14,-204.39 501.85,-190.08 561.65,-179.21"/>
<polygon fill="black" stroke="black" points="562.26,-182.65 571.47,-177.42 561.01,-175.77 562.26,-182.65"/>
</g>
<!-- annotation::busco_results -->
<g id="node22" class="node">
<title>annotation::busco_results</title>
<polygon fill="none" stroke="black" points="1004.66,-180 810.91,-180 810.91,-144 1004.66,-144 1004.66,-180"/>
<text xml:space="preserve" text-anchor="middle" x="907.78" y="-157.32" font-family="Arial" font-size="14.00">annotation::busco_results</text>
</g>
<!-- 7 busco&#45;&gt;annotation::busco_results -->
<g id="edge33" class="edge">
<title>7 busco&#45;&gt;annotation::busco_results</title>
<path fill="none" stroke="black" d="M912.17,-287.59C911.33,-263.61 909.8,-220.14 908.78,-191.42"/>
<polygon fill="black" stroke="black" points="912.29,-191.49 908.44,-181.62 905.29,-191.74 912.29,-191.49"/>
</g>
<!-- annotation::busco_results&#45;&gt;target -->
<g id="edge44" class="edge">
<title>annotation::busco_results&#45;&gt;target</title>
<path fill="none" stroke="black" d="M887.91,-143.82C864.81,-124.47 824.94,-92.99 786.78,-72 757.12,-55.68 721.38,-41.96 693.98,-32.57"/>
<polygon fill="black" stroke="black" points="695.2,-29.29 684.61,-29.42 692.97,-35.93 695.2,-29.29"/>
</g>
<!-- annotation::eggnog_results -->
<g id="node24" class="node">
<title>annotation::eggnog_results</title>
<polygon fill="none" stroke="black" points="1175.28,-252 970.28,-252 970.28,-216 1175.28,-216 1175.28,-252"/>
<text xml:space="preserve" text-anchor="middle" x="1072.78" y="-229.32" font-family="Arial" font-size="14.00">annotation::eggnog_results</text>
</g>
<!-- 8 eggnog_mapper&#45;&gt;annotation::eggnog_results -->
<g id="edge36" class="edge">
<title>8 eggnog_mapper&#45;&gt;annotation::eggnog_results</title>
<path fill="none" stroke="black" d="M1078.81,-287.7C1077.97,-280.41 1076.98,-271.73 1076.05,-263.54"/>
<polygon fill="black" stroke="black" points="1079.52,-263.15 1074.91,-253.61 1072.57,-263.94 1079.52,-263.15"/>
</g>
<!-- annotation::eggnog_results&#45;&gt;target -->
<g id="edge45" class="edge">
<title>annotation::eggnog_results&#45;&gt;target</title>
<path fill="none" stroke="black" d="M1065.26,-215.61C1055.87,-195.76 1038.03,-163.54 1013.78,-144 919.25,-67.82 775.47,-36.77 700.38,-25.19"/>
<polygon fill="black" stroke="black" points="701.28,-21.78 690.87,-23.78 700.25,-28.71 701.28,-21.78"/>
</g>
<!-- transcriptomics::diff_count_table -->
<g id="node26" class="node">
<title>transcriptomics::diff_count_table</title>
<polygon fill="none" stroke="black" points="417.03,-108 174.53,-108 174.53,-72 417.03,-72 417.03,-108"/>
<text xml:space="preserve" text-anchor="middle" x="295.78" y="-85.33" font-family="Arial" font-size="14.00">transcriptomics::diff_count_table</text>
</g>
<!-- 9 pydeseq2&#45;&gt;transcriptomics::diff_count_table -->
<g id="edge39" class="edge">
<title>9 pydeseq2&#45;&gt;transcriptomics::diff_count_table</title>
<path fill="none" stroke="black" d="M273.2,-143.7C276.43,-136.15 280.3,-127.12 283.92,-118.68"/>
<polygon fill="black" stroke="black" points="287.14,-120.07 287.86,-109.5 280.7,-117.31 287.14,-120.07"/>
</g>
<!-- transcriptomics::diff_count_table&#45;&gt;target -->
<g id="edge47" class="edge">
<title>transcriptomics::diff_count_table&#45;&gt;target</title>
<path fill="none" stroke="black" d="M384.45,-71.52C454,-57.8 548.07,-39.25 603.79,-28.27"/>
<polygon fill="black" stroke="black" points="604.12,-31.77 613.26,-26.4 602.77,-24.9 604.12,-31.77"/>
</g>
<!-- transcriptomics::gene_count_table -->
<g id="node28" class="node">
<title>transcriptomics::gene_count_table</title>
<polygon fill="none" stroke="black" points="778.03,-108 523.53,-108 523.53,-72 778.03,-72 778.03,-108"/>
<text xml:space="preserve" text-anchor="middle" x="650.78" y="-85.33" font-family="Arial" font-size="14.00">transcriptomics::gene_count_table</text>
</g>
<!-- 10 stringtie_count_matrix&#45;&gt;transcriptomics::gene_count_table -->
<g id="edge42" class="edge">
<title>10 stringtie_count_matrix&#45;&gt;transcriptomics::gene_count_table</title>
<path fill="none" stroke="black" d="M650.78,-143.7C650.78,-136.41 650.78,-127.73 650.78,-119.54"/>
<polygon fill="black" stroke="black" points="654.28,-119.62 650.78,-109.62 647.28,-119.62 654.28,-119.62"/>
</g>
<!-- transcriptomics::gene_count_table&#45;&gt;target -->
<g id="edge43" class="edge">
<title>transcriptomics::gene_count_table&#45;&gt;target</title>
<path fill="none" stroke="black" d="M650.78,-71.7C650.78,-64.41 650.78,-55.73 650.78,-47.54"/>
<polygon fill="black" stroke="black" points="654.28,-47.62 650.78,-37.62 647.28,-47.62 654.28,-47.62"/>
</g>
</g>
</svg>
