<?xml version="1.0" encoding="UTF-8" standalone="no"?>
<!DOCTYPE svg PUBLIC "-//W3C//DTD SVG 1.1//EN"
 "http://www.w3.org/Graphics/SVG/1.1/DTD/svg11.dtd">
<!-- Generated by graphviz version 13.1.1 (20250720.1534)
 -->
<!-- Title: G Pages: 1 -->
<svg width="379pt" height="620pt"
 viewBox="0.00 0.00 379.00 620.00" xmlns="http://www.w3.org/2000/svg" xmlns:xlink="http://www.w3.org/1999/xlink">
<g id="graph0" class="graph" transform="scale(1 1) rotate(0) translate(4 616)">
<title>G</title>
<polygon fill="white" stroke="none" points="-4,4 -4,-616 374.75,-616 374.75,4 -4,4"/>
<!-- given -->
<g id="node1" class="node">
<title>given</title>
<ellipse fill="#cccccc" stroke="black" cx="185.38" cy="-594" rx="38.06" ry="18"/>
<text xml:space="preserve" text-anchor="middle" x="185.38" y="-589.33" font-family="Arial" font-size="14.00">given</text>
</g>
<!-- metabolomics::jgi_metabolomics_dataset -->
<g id="node2" class="node">
<title>metabolomics::jgi_metabolomics_dataset</title>
<polygon fill="none" stroke="black" points="335.5,-540 35.25,-540 35.25,-504 335.5,-504 335.5,-540"/>
<text xml:space="preserve" text-anchor="middle" x="185.38" y="-517.33" font-family="Arial" font-size="14.00">metabolomics::jgi_metabolomics_dataset</text>
</g>
<!-- given&#45;&gt;metabolomics::jgi_metabolomics_dataset -->
<g id="edge1" class="edge">
<title>given&#45;&gt;metabolomics::jgi_metabolomics_dataset</title>
<path fill="none" stroke="black" d="M185.38,-575.7C185.38,-568.41 185.38,-559.73 185.38,-551.54"/>
<polygon fill="black" stroke="black" points="188.88,-551.62 185.38,-541.62 181.88,-551.62 188.88,-551.62"/>
</g>
<!-- 1 jgi_loader -->
<g id="node3" class="node">
<title>1 jgi_loader</title>
<ellipse fill="#cccccc" stroke="black" cx="185.38" cy="-450" rx="67.52" ry="18"/>
<text xml:space="preserve" text-anchor="middle" x="185.38" y="-445.32" font-family="Arial" font-size="14.00">1 jgi_loader</text>
</g>
<!-- metabolomics::jgi_metabolomics_dataset&#45;&gt;1 jgi_loader -->
<g id="edge2" class="edge">
<title>metabolomics::jgi_metabolomics_dataset&#45;&gt;1 jgi_loader</title>
<path fill="none" stroke="black" d="M185.38,-503.7C185.38,-496.41 185.38,-487.73 185.38,-479.54"/>
<polygon fill="black" stroke="black" points="188.88,-479.62 185.38,-469.62 181.88,-479.62 188.88,-479.62"/>
</g>
<!-- metabolomics::metabolomics_feature_table -->
<g id="node4" class="node">
<title>metabolomics::metabolomics_feature_table</title>
<polygon fill="none" stroke="black" points="343.38,-396 27.38,-396 27.38,-360 343.38,-360 343.38,-396"/>
<text xml:space="preserve" text-anchor="middle" x="185.38" y="-373.32" font-family="Arial" font-size="14.00">metabolomics::metabolomics_feature_table</text>
</g>
<!-- 1 jgi_loader&#45;&gt;metabolomics::metabolomics_feature_table -->
<g id="edge3" class="edge">
<title>1 jgi_loader&#45;&gt;metabolomics::metabolomics_feature_table</title>
<path fill="none" stroke="black" d="M185.38,-431.7C185.38,-424.41 185.38,-415.73 185.38,-407.54"/>
<polygon fill="black" stroke="black" points="188.88,-407.62 185.38,-397.62 181.88,-407.62 188.88,-407.62"/>
</g>
<!-- 2 differential_analysis -->
<g id="node5" class="node">
<title>2 differential_analysis</title>
<ellipse fill="#cccccc" stroke="black" cx="185.38" cy="-306" rx="116.97" ry="18"/>
<text xml:space="preserve" text-anchor="middle" x="185.38" y="-301.32" font-family="Arial" font-size="14.00">2 differential_analysis</text>
</g>
<!-- metabolomics::metabolomics_feature_table&#45;&gt;2 differential_analysis -->
<g id="edge4" class="edge">
<title>metabolomics::metabolomics_feature_table&#45;&gt;2 differential_analysis</title>
<path fill="none" stroke="black" d="M185.38,-359.7C185.38,-352.41 185.38,-343.73 185.38,-335.54"/>
<polygon fill="black" stroke="black" points="188.88,-335.62 185.38,-325.62 181.88,-335.62 188.88,-335.62"/>
</g>
<!-- metabolomics::metabolomics_differential -->
<g id="node6" class="node">
<title>metabolomics::metabolomics_differential</title>
<polygon fill="none" stroke="black" points="335.12,-252 35.62,-252 35.62,-216 335.12,-216 335.12,-252"/>
<text xml:space="preserve" text-anchor="middle" x="185.38" y="-229.32" font-family="Arial" font-size="14.00">metabolomics::metabolomics_differential</text>
</g>
<!-- 2 differential_analysis&#45;&gt;metabolomics::metabolomics_differential -->
<g id="edge5" class="edge">
<title>2 differential_analysis&#45;&gt;metabolomics::metabolomics_differential</title>
<path fill="none" stroke="black" d="M185.38,-287.7C185.38,-280.41 185.38,-271.73 185.38,-263.54"/>
<polygon fill="black" stroke="black" points="188.88,-263.62 185.38,-253.62 181.88,-263.62 188.88,-263.62"/>
</g>
<!-- 3 pathway_enrichment -->
<g id="node7" class="node">
<title>3 pathway_enrichment</title>
<ellipse fill="#cccccc" stroke="black" cx="185.38" cy="-162" rx="122.76" ry="18"/>
<text xml:space="preserve" text-anchor="middle" x="185.38" y="-157.32" font-family="Arial" font-size="14.00">3 pathway_enrichment</text>
</g>
<!-- metabolomics::metabolomics_differential&#45;&gt;3 pathway_enrichment -->
<g id="edge6" class="edge">
<title>metabolomics::metabolomics_differential&#45;&gt;3 pathway_enrichment</title>
<path fill="none" stroke="black" d="M185.38,-215.7C185.38,-208.41 185.38,-199.73 185.38,-191.54"/>
<polygon fill="black" stroke="black" points="188.88,-191.62 185.38,-181.62 181.88,-191.62 188.88,-191.62"/>
</g>
<!-- metabolomics::metabolomics_pathway_enrichment -->
<g id="node8" class="node">
<title>metabolomics::metabolomics_pathway_enrichment</title>
<polygon fill="none" stroke="black" points="370.75,-108 0,-108 0,-72 370.75,-72 370.75,-108"/>
<text xml:space="preserve" text-anchor="middle" x="185.38" y="-85.33" font-family="Arial" font-size="14.00">metabolomics::metabolomics_pathway_enrichment</text>
</g>
<!-- 3 pathway_enrichment&#45;&gt;metabolomics::metabolomics_pathway_enrichment -->
<g id="edge7" class="edge">
<title>3 pathway_enrichment&#45;&gt;metabolomics::metabolomics_pathway_enrichment</title>
<path fill="none" stroke="black" d="M185.38,-143.7C185.38,-136.41 185.38,-127.73 185.38,-119.54"/>
<polygon fill="black" stroke="black" points="188.88,-119.62 185.38,-109.62 181.88,-119.62 188.88,-119.62"/>
</g>
<!-- target -->
<g id="node9" class="node">
<title>target</title>
<ellipse fill="#cccccc" stroke="black" cx="185.38" cy="-18" rx="40.16" ry="18"/>
<text xml:space="preserve" text-anchor="middle" x="185.38" y="-13.32" font-family="Arial" font-size="14.00">target</text>
</g>
<!-- metabolomics::metabolomics_pathway_enrichment&#45;&gt;target -->
<g id="edge8" class="edge">
<title>metabolomics::metabolomics_pathway_enrichment&#45;&gt;target</title>
<path fill="none" stroke="black" d="M185.38,-71.7C185.38,-64.41 185.38,-55.73 185.38,-47.54"/>
<polygon fill="black" stroke="black" points="188.88,-47.62 185.38,-37.62 181.88,-47.62 188.88,-47.62"/>
</g>
</g>
</svg>
